<svg version="1" xmlns="http://www.w3.org/2000/svg" width="1365.333" height="1365.333" viewBox="0 0 1024.000000 1024.000000"><path d="M486.5 270.5c-90.3 11.1-165.2 70.3-193.4 152.7-8.1 23.7-11.5 44.7-11.5 70.8 0 10.2.6 22.5 1.3 27.5 10.6 73.6 52.9 133.9 119.6 170l8.9 4.9-3.4.8c-28.6 7-51.4 14.8-72.6 24.8-12.2 5.8-12.7 5.9-14.8 4.2-1.2-.9-28-23.5-59.5-50.2-31.5-26.7-58.9-49.3-60.9-50.2-9.3-4.3-19.5-2.8-27.4 4.1-10.1 8.9-11.7 24.1-3.6 34.2.7.9 25.2 21.7 54.3 46.4 29.2 24.6 53.6 45.4 54.4 46.1 1.2 1.1 0 2.8-8.3 11.5-33.8 35.2-52 77.7-54.3 126.6l-.6 13.1 17.4 11.5c64.1 42.4 118.4 65.8 182.4 78.6 49.7 10 108.5 12 159 5.5 78.1-10 148.8-37.7 221.4-86.7l13.3-9-.6-11.1c-2.8-45.8-16.8-83.6-42.6-115.1-7.8-9.5-24.7-25.7-34.9-33.5-27.3-20.7-64-37.6-103.1-47.5-5.8-1.5-10.6-2.8-10.8-3-.2-.2 4.1-2.6 9.5-5.4 55.4-28.5 97.8-79.9 114.3-138.9 6.1-21.7 7.5-32.2 7.5-59.2s-1.4-37.5-7.5-59.2c-23.7-84.4-96-147.5-186.5-162.9-15.6-2.7-50.9-3.4-67-1.4zM637.4 416c10.4 2.6 18.7 7.2 26.8 14.8 8.6 8.1 13.4 15.4 17.2 26.2l3.1 8.5v66l-2.7 7.3c-9 24.8-28.2 40.1-54.1 43.3-5.2.6-49 .9-119.7.6-103.5-.3-111.9-.4-117.4-2.1-21.5-6.4-36.8-21-44.3-42.1l-2.8-8v-32c0-28.2.2-32.7 1.8-38 6.8-22 25.1-39.8 46.2-44.9 5.1-1.2 24.4-1.4 122.1-1.5 112.5-.1 116.3 0 123.8 1.9z"/><path d="M438.2 470.6c-6.1 3-9.6 6.9-13.1 14.4-2.2 4.6-2.6 6.9-2.6 14.5s.4 9.9 2.6 14.5c5.2 11.3 13.1 17 23.2 17 24.4 0 35.6-36.4 17-55.5-7.5-7.8-17.7-9.6-27.1-4.9zM567.3 470c-5.2 2.7-10.8 8.8-13.7 14.9-1.7 3.7-2.1 6.5-2.1 14.6 0 11.5 1.7 16.4 8.1 23.5 5 5.5 10.4 8 17.4 8 7 0 12.4-2.5 17.4-8 5.4-6 7.9-12.1 8.4-21.1.8-13.2-3.8-23.5-13.6-30.3-5.8-4.1-15.6-4.8-21.9-1.6z"/></svg>